<svg width="151" height="136" fill="none" xmlns="http://www.w3.org/2000/svg"><path d="M134 1.168l-.048.498.048-.498zM109.818 18.67l-.476-.151.476.15zM.904 41.64c1.21.236 2.41.466 3.603.69l.184-.983c-1.19-.223-2.388-.453-3.595-.688l-.192.981zm10.656 1.962c2.399.415 4.761.804 7.088 1.169l.155-.988c-2.322-.364-4.68-.752-7.073-1.166l-.17.985zm14.153 2.217c2.426.34 4.81.651 7.156.936l.12-.992a403.209 403.209 0 01-7.137-.934l-.139.99zm14.193 1.726c2.458.252 4.869.474 7.233.666l.082-.996a347.017 347.017 0 01-7.213-.665l-.102.995zm14.37 1.17c2.43.143 4.807.255 7.132.336l.035-1c-2.317-.08-4.686-.192-7.107-.335l-.06.998zm14.363.492c2.453.02 4.844.004 7.173-.045l-.021-1c-2.32.05-4.7.065-7.144.045l-.008 1zm14.307-.31c2.459-.133 4.843-.305 7.152-.514l-.09-.995a198.33 198.33 0 01-7.116.51l.054.998zm14.322-1.308a151.84 151.84 0 007.111-1.109l-.178-.984c-2.26.409-4.614.777-7.064 1.102l.131.99zm14.149-2.578c2.433-.58 4.741-1.21 6.928-1.883l-.295-.956a109.494 109.494 0 01-6.865 1.867l.232.973zm13.709-4.26a73.079 73.079 0 006.607-2.994l-.46-.888a72.017 72.017 0 01-6.516 2.953l.369.93zm12.775-6.677c2.159-1.494 4.025-3.044 5.611-4.623l-.705-.709c-1.54 1.534-3.36 3.046-5.475 4.51l.569.822zm10.098-10.333c1.359-2.338 2.157-4.672 2.424-6.915l-.993-.119c-.249 2.092-.997 4.297-2.295 6.531l.864.503zm1.279-14.164c-1.031-2.146-2.678-4.016-4.866-5.49l-.559.83c2.054 1.383 3.576 3.122 4.523 5.093l.902-.433zM137.66 1.252a27.615 27.615 0 00-3.612-.581l-.096.995c1.227.118 2.389.307 3.482.56l.226-.974zm-3.612-.581a34.884 34.884 0 00-4.195-.161l.025 1a33.876 33.876 0 014.074.156l.096-.995zm-12.435 1.513c-2.683 1.164-4.872 2.903-6.689 5.125l.775.633c1.725-2.11 3.788-3.746 6.312-4.841l-.398-.917zm-10.857 12.403a50.53 50.53 0 00-1.414 3.932l.953.302a49.495 49.495 0 011.386-3.854l-.925-.38zm-1.414 3.932l-1.09 3.447.953.301 1.09-3.447-.953-.301zm-3.282 10.373a1408.93 1408.93 0 01-2.212 6.906l.952.307c.753-2.33 1.491-4.636 2.213-6.91l-.953-.303zm-4.473 13.805a650.48 650.48 0 01-2.325 6.871l.945.326c.795-2.303 1.57-4.6 2.329-6.88l-.949-.317zm-4.737 13.71c-.819 2.27-1.658 4.54-2.517 6.8l.934.356a424.262 424.262 0 002.524-6.817l-.94-.339zm-5.162 13.55c-.909 2.249-1.84 4.48-2.796 6.689l.917.397c.96-2.216 1.895-4.456 2.806-6.711l-.927-.375zM85.92 83.252a210.755 210.755 0 01-3.176 6.505l.89.455a211.696 211.696 0 003.192-6.536l-.906-.424zm-6.597 12.892a146.748 146.748 0 01-3.696 6.211l.846.533a147.762 147.762 0 003.721-6.253l-.871-.491zm-7.726 12.219a99.359 99.359 0 01-4.406 5.716l.768.64a100.355 100.355 0 004.451-5.774l-.813-.582zm-9.257 11.058a66.148 66.148 0 01-5.335 4.822l.627.778a67.136 67.136 0 005.417-4.894l-.709-.706zm-11.212 8.971a46.792 46.792 0 01-6.387 3.259l.384.924a47.841 47.841 0 006.523-3.329l-.52-.854zm-13.212 5.45a42.446 42.446 0 01-7.083 1.006l.057.998a43.381 43.381 0 007.25-1.03l-.224-.974zm-14.25.843a50.841 50.841 0 01-3.582-.488l-.17.985c1.233.213 2.45.378 3.652.498l.1-.995z" fill="url(#paint0_linear_1710_5234)"/><defs><linearGradient id="paint0_linear_1710_5234" x1="65.396" y1="-30.433" x2="204.028" y2="5.773" gradientUnits="userSpaceOnUse"><stop stop-color="#0ABD92"/><stop offset="1" stop-color="#009DB8"/></linearGradient></defs></svg>