<svg width="44" height="44" fill="none" xmlns="http://www.w3.org/2000/svg"><path opacity=".6" d="M14.813 8.548l-.322.383c-1.746-1.468-2.7-3.377-2.81-5.635a14.51 14.51 0 01-.016-.787c.001-.219.01-.445.034-.579m3.114 6.618L31.535.791h0a.87.87 0 00-.207-.119A1.265 1.265 0 0031.027.6c-.209-.029-.542-.045-1.113-.057-1.155-.024-3.39-.028-7.817-.037a716.098 716.098 0 00-7.243.006c-.678.007-1.142.017-1.45.032a5.891 5.891 0 00-.374.026 1.056 1.056 0 00-.298.07l.2.457-.2-.457a1.817 1.817 0 00-.663.529c-.17.212-.317.48-.37.762m3.114 6.618l-.322.383c.961.808 2.211 1.353 3.728 1.66v2.758l-.145.059.188.463-.188-.463c-1.77.719-3.117 2.275-3.604 4.147H9.698c-1.72 0-3.05.008-3.986.023a45.57 45.57 0 00-1.117.029 4.21 4.21 0 00-.593.05m10.811-9.109l-10.71 30.43-.101.49c-1.659-.345-3.053-1.74-3.397-3.4a2.584 2.584 0 01-.032-.335 23.282 23.282 0 01-.02-.538 92.666 92.666 0 01-.03-1.708C.507 32.116.5 30.338.5 28.562c0-1.776.007-3.553.023-4.925.008-.686.018-1.272.03-1.707.006-.217.012-.4.02-.538.006-.121.014-.252.032-.336M11.699 1.93l.492.093-.492-.092s0 0 0 0zM4.002 17.656s0 0 0 0l.102.49-.102-.49zm0 0c-1.659.346-3.053 1.741-3.397 3.4m0 0l.489.102-.49-.102s0 0 0 0zm28.96 21.45l.4.298a1.87 1.87 0 00.177-.324c.055-.123.119-.276.186-.448.135-.345.291-.779.439-1.226l-.475-.157m-.727 1.856l-.029-24.922.09.349-.485.123m.424 24.45c.115-.153.437-.976.727-1.856m-.727 1.856c-.056.075-.098.14-.15.194-.311.33-.992.312-7.531.291l-6.923-.022-.315-.251 16.167-3.648m-.521 1.58l.475.157.407-1.237m-.882 1.08l.52-1.58m.362.5h3.963c1.416 0 2.539-.008 3.343-.023.403-.007.728-.017.973-.029.229-.01.427-.024.544-.049m-8.823.101h-.361v-.5m.361.5l.114-.343-.475-.157m9.184.4s0 0 0 0l-.102-.49.102.49zm0 0c1.659-.346 3.053-1.741 3.398-3.4a2.63 2.63 0 00.031-.336c.008-.14.014-.321.02-.538.012-.435.022-1.022.03-1.707.016-1.372.023-3.15.023-4.926 0-1.776-.007-3.553-.023-4.925-.008-.686-.018-1.272-.03-1.707-.006-.217-.012-.4-.02-.538a2.591 2.591 0 00-.032-.336c-.344-1.659-1.738-3.055-3.397-3.4 0 0 0 0 0 0l-.102.49c-.29-.06-2.154-.09-5.594-.09h-5.16m0 0l-.089-.35c-.443-1.734-1.688-3.174-3.315-3.835m3.404 4.184v-.371l-3.404-3.813m0 0l.188-.463-.145-.059m-.043.522l2.936-4.34c-.746.444-1.698.825-2.438.966a6.586 6.586 0 01-.296.05l-.036.007a5.406 5.406 0 00-.114.019m-.052 3.298l-.457-.185m.457.185l-.457-.185m.5-.337v-1.417c0-.228-.001-.42-.003-.587-.001-.212-.002-.38 0-.524a3.08 3.08 0 01.012-.248m-.009 2.776v.337h-.5m.5-.337l-.312-.127-.188.464m.509-3.113c.005-.053.01-.075.011-.08 0 0 0-.001 0 0a.223.223 0 01-.072.085c-.029.02-.043.019-.008.01a.702.702 0 01.069-.015zm-.509 3.113v-1.754c0-1.19-.041-1.58.131-1.74.117-.109.334-.11.73-.186l-.86 3.68zM7.467 29.122c.413-.414.27-1.09-.232-1.3-.482-.201-1.03.111-1.112.547l1.344.753zm0 0c-.55.55-1.502.092-1.344-.752l1.344.752zm0 4.596c.413-.414.27-1.089-.232-1.299-.482-.201-1.03.11-1.112.547l1.344.752zm0 0c-.55.55-1.502.093-1.344-.752l1.344.752zm5.717 5.351l-.474.16.115.34h.359v-.5zm10.46-20.39h0c2.045.344 3.828 1.279 5.394 2.842 2.047 2.042 3.072 4.675 2.93 7.509-.13 2.581-1.088 4.733-2.93 6.577-1.455 1.456-3.08 2.342-5.094 2.776-.434.094-1.174.147-1.944.147-.771 0-1.51-.053-1.945-.147-2.013-.434-3.64-1.32-5.094-2.776-1.818-1.82-2.787-3.973-2.93-6.498-.29-5.149 3.285-9.56 8.493-10.44.817-.138 2.266-.134 3.12.01zm10.881 5.82l-.376.33.376-.33a.795.795 0 01-.026-1.041.956.956 0 01.172-.173.439.439 0 01.167-.066c.216-.048.578-.057 1.358-.046.628.01.945.019 1.132.04a.6.6 0 01.132.026h0c.005.002.012.004.038.024.186.139.26.23.297.305.038.072.066.179.066.397 0 .219-.028.326-.066.398-.038.075-.111.166-.297.305-.026.02-.033.022-.04.024h0a.577.577 0 01-.127.026c-.177.023-.474.035-1.056.047-.751.016-1.138.005-1.378-.045a.623.623 0 01-.21-.074.725.725 0 01-.162-.148zM28.673 9.53c.393-.234.87-.63 1.298-1.045.429-.416.845-.885 1.102-1.28a7.938 7.938 0 001.254-4.53c-.014-.46-.038-.832-.158-1.136-.136-.344-.37-.551-.634-.749l-2.862 8.74zm-7.778 14.738c-2.334.628-3.792 3.048-3.19 5.36.615 2.363 3.029 3.84 5.36 3.232a4.479 4.479 0 003.311-3.701c.442-3.068-2.492-5.695-5.481-4.89z" stroke="#fff"/></svg>