<svg width="36" height="34" viewBox="0 0 36 34" fill="none" xmlns="http://www.w3.org/2000/svg">
<g opacity="0.6">
<path fill-rule="evenodd" clip-rule="evenodd" d="M18.3423 0.157562C18.1254 0.300237 18.0619 0.429272 17.679 1.50723L17.2555 2.6992L16.5497 2.95803C16.1616 3.10036 15.6775 3.29939 15.4742 3.40032L15.1044 3.58385L13.9752 3.03188C13.352 2.72731 12.7555 2.47999 12.6441 2.47999C12.5316 2.47999 12.32 2.56844 12.1668 2.67957C11.844 2.91359 9.10605 5.60438 8.93695 5.85384C8.87336 5.94747 8.82141 6.10702 8.82141 6.20829C8.82141 6.30957 9.07542 6.89288 9.3859 7.5045L9.95031 8.61663L9.76328 8.97569C9.66044 9.17321 9.45711 9.64477 9.31151 10.0237L9.04677 10.7126L7.82802 11.126C6.83379 11.4632 6.58231 11.5751 6.46261 11.7339C6.32075 11.922 6.31588 12.0067 6.31588 14.2988V16.6692L6.52762 16.8693C6.8124 17.1385 9.48372 18.0161 9.80711 17.9468C10.0956 17.885 10.3741 17.5463 10.3741 17.2574C10.3741 16.8242 10.1561 16.6765 8.89982 16.2584L7.76132 15.8795L7.77967 14.2666L7.79803 12.6536L8.71554 12.3558C10.3053 11.8396 10.2003 11.9272 10.5821 10.7984C10.7072 10.4288 10.9656 9.82699 11.1564 9.46118C11.3473 9.09529 11.5034 8.70756 11.5034 8.59947C11.5034 8.49138 11.2676 7.94341 10.9794 7.38173L10.4554 6.36048L11.6389 5.20667L12.8225 4.05293L13.8912 4.57541C14.479 4.86276 15.0256 5.09789 15.1058 5.09789C15.186 5.09789 15.5755 4.94233 15.9713 4.75219C16.3671 4.56205 17.0561 4.28441 17.5025 4.13533C18.0486 3.9529 18.3488 3.81477 18.4201 3.71323C18.4783 3.63014 18.6874 3.09395 18.8847 2.5216L19.2435 1.48105H20.9253H22.6071L22.9832 2.58332C23.2065 3.23821 23.4145 3.73031 23.4956 3.79569C23.5706 3.85625 23.9441 4.00609 24.3256 4.12865C24.707 4.25114 25.3734 4.51933 25.8065 4.72463C26.2396 4.92993 26.6608 5.09789 26.7425 5.09789C26.8243 5.09789 27.3721 4.86276 27.96 4.57541L29.0287 4.05293L30.2123 5.20667L31.3958 6.36048L30.8718 7.38173C30.5746 7.96098 30.3478 8.49104 30.3478 8.6065C30.3478 8.71845 30.5239 9.16032 30.7392 9.58849C30.9545 10.0167 31.2258 10.6658 31.342 11.0312C31.4583 11.3964 31.6112 11.7463 31.6819 11.8087C31.7525 11.8712 32.3149 12.0868 32.9317 12.2879L34.0531 12.6535L34.0721 14.2804L34.091 15.9073L32.9739 16.2539C32.2283 16.4851 31.8066 16.6527 31.7057 16.7575C31.6226 16.8439 31.4403 17.2397 31.3006 17.6371C31.1608 18.0345 30.8893 18.6721 30.6971 19.0539C30.5019 19.4419 30.3478 19.8443 30.3478 19.9661C30.3478 20.0986 30.5482 20.5762 30.8586 21.1841L31.3695 22.1843L30.1904 23.3352L29.0113 24.4861L27.8975 23.9533C27.2848 23.6603 26.754 23.4211 26.7179 23.4218C26.6817 23.4226 26.289 23.5962 25.8452 23.8076C25.4015 24.0191 24.7226 24.2929 24.3368 24.4162C23.9509 24.5394 23.5654 24.7081 23.4802 24.7911C23.3881 24.8809 23.1798 25.3673 22.9664 25.991L22.6077 27.0401H20.9276H19.2474L18.8833 25.9914C18.6633 25.358 18.4527 24.8738 18.3514 24.7686C17.9629 24.365 17.1496 24.6748 17.1496 25.2263C17.1496 25.3523 17.3584 26.0669 17.6136 26.8143C18.0012 27.9494 18.1125 28.2018 18.2896 28.3472L18.5014 28.5212H20.9271H23.3526L23.5478 28.3574C23.6999 28.2297 23.8304 27.9374 24.1397 27.032L24.5364 25.8704L24.813 25.7744C24.9652 25.7215 25.4684 25.5228 25.9312 25.3328L26.7726 24.9872L27.855 25.5142C29.4585 26.2948 29.1709 26.3898 31.2112 24.4049C32.5185 23.1332 32.911 22.7109 32.973 22.5092C33.05 22.2588 33.0324 22.2091 32.4721 21.0969L31.8915 19.9442L32.1441 19.4123C32.2831 19.1198 32.4869 18.6416 32.5969 18.3496L32.7969 17.8188L33.9852 17.4267C34.8903 17.128 35.2125 16.9904 35.3368 16.8493L35.5 16.6641V14.266C35.5 11.964 35.4943 11.8608 35.3574 11.6909C35.2472 11.5542 34.9374 11.4242 33.9944 11.1191L32.7741 10.7242L32.6129 10.2706C32.5243 10.0211 32.3217 9.54288 32.1628 9.20786L31.874 8.59865L32.3906 7.58889C33.0167 6.36502 33.0545 6.25114 32.929 5.96814C32.8764 5.84943 32.0741 5.01611 31.1461 4.11618C29.646 2.66152 29.4337 2.47999 29.2319 2.47999C29.0894 2.47999 28.5856 2.68508 27.8759 3.03188L26.7467 3.58385L26.377 3.40032C26.1736 3.29939 25.6896 3.09967 25.3014 2.95651C24.9133 2.81336 24.5686 2.65463 24.5356 2.60379C24.5026 2.55294 24.2961 2.0005 24.0768 1.3762C23.6975 0.296035 23.6661 0.235134 23.4311 0.120567C23.2111 0.0132326 22.9323 7.41532e-05 20.8831 5.261e-06C18.6019 -0.000132523 18.58 0.00124529 18.3423 0.157562ZM19.5235 5.10065C14.7432 5.83001 11.25 9.94356 11.4526 14.605C11.4927 15.5256 11.6203 16.2338 11.9041 17.1109L12.081 17.6573L9.53397 20.1442L6.98701 22.631L6.22801 22.6414C3.37446 22.6806 1.01566 24.6774 0.561351 27.4382C0.380812 28.5351 0.617602 30.0957 1.02484 30.4932C1.2094 30.6734 1.58834 30.7132 1.85646 30.5807C1.94123 30.5387 2.63028 29.9031 3.38766 29.1683L4.76471 27.832L5.78654 28.8312L6.80838 29.8305L5.42271 31.1909C4.66061 31.9392 4.00197 32.6191 3.95899 32.7019C3.72291 33.157 3.97861 33.5581 4.63012 33.7545C7.37928 34.5833 10.4175 33.2517 11.6181 30.6918C11.9506 29.9828 12.0782 29.4272 12.1162 28.5212L12.1524 27.6601L14.6614 25.2039L17.1703 22.7479L17.4739 22.8748C17.9281 23.0649 18.7063 23.28 19.3578 23.3956C20.1354 23.5336 21.7382 23.5305 22.5489 23.3896C26.4551 22.7102 29.5469 19.6995 30.2568 15.8835C30.4176 15.0193 30.4119 13.4611 30.2449 12.6071C29.5159 8.88055 26.6769 6.04219 22.8312 5.1951C22.2465 5.06634 20.1423 5.00626 19.5235 5.10065ZM21.7725 6.50722C22.9862 6.58879 24.6473 7.21488 25.6919 7.98454C27.7451 9.49755 28.9362 11.8255 28.9362 14.3254C28.9362 17.2194 27.154 19.9878 24.4359 21.3159C23.4943 21.7761 22.0087 22.1136 20.9256 22.1134C20.0944 22.1132 18.3495 21.7948 18.3495 21.6433C18.3495 21.617 18.7439 21.2114 19.2261 20.7419L20.1028 19.8882L20.6201 19.9017C22.0833 19.9398 23.6325 19.3673 24.7405 18.3789C25.4686 17.7293 26.1336 16.642 26.4109 15.6478C26.6277 14.8703 26.6232 13.5377 26.4013 12.7619C26.2052 12.0764 25.989 11.8493 25.5324 11.8493C25.2526 11.8493 25.2046 11.8882 23.7719 13.2766L22.2991 14.7039L21.2769 13.7079L20.2548 12.712L21.659 11.3334C22.4313 10.5752 23.1012 9.88176 23.1477 9.79255C23.2605 9.57609 23.1844 9.21923 22.9869 9.03811C22.6223 8.70371 21.5931 8.50819 20.4557 8.55717C18.3293 8.6488 16.4729 9.85014 15.5283 11.746C15.1427 12.5199 15.0276 12.9941 14.9826 13.9949L14.9435 14.866L14.1081 15.6794C13.6486 16.1267 13.2539 16.4744 13.2309 16.452C13.2079 16.4296 13.1245 16.1056 13.0454 15.732C12.8427 14.7741 12.8882 13.2819 13.1496 12.3125C13.8968 9.5415 16.1503 7.37085 19.0045 6.67249C19.5696 6.53422 20.6767 6.41304 21.0315 6.45059C21.1285 6.46092 21.462 6.48634 21.7725 6.50722ZM19.8208 11.0743C19.1751 11.709 18.6117 12.296 18.5688 12.3787C18.5258 12.4615 18.4906 12.6313 18.4906 12.7561C18.4906 12.9606 18.6627 13.151 20.239 14.6896L21.9874 16.3962H22.299C22.6083 16.3962 22.6196 16.3875 23.8678 15.1759L25.125 13.9556V14.3381C25.125 14.817 24.9109 15.6481 24.663 16.1313C24.1426 17.1456 23.3147 17.8367 22.0935 18.2765C21.7693 18.3933 21.5158 18.4195 20.6198 18.4289L19.5377 18.4403L15.1303 22.7401C12.7062 25.1051 10.7048 27.1085 10.6828 27.1921C10.6607 27.2757 10.6366 27.7873 10.6293 28.3288C10.6172 29.214 10.597 29.3601 10.429 29.7749C10.0023 30.8283 9.2549 31.6469 8.30047 32.106C7.70267 32.3936 6.96174 32.5826 6.42443 32.5847L6.10958 32.5859L7.28422 31.4319C7.93022 30.7972 8.49407 30.1873 8.53719 30.0765C8.69747 29.6644 8.59916 29.5274 7.03077 27.9789C6.21058 27.1692 5.41566 26.4173 5.26426 26.3083C4.97454 26.0996 4.68376 26.0574 4.42325 26.1863C4.33849 26.2282 3.75417 26.7615 3.12475 27.3714C2.49534 27.9813 1.96346 28.4638 1.94278 28.4435C1.9221 28.4233 1.93699 28.1613 1.97588 27.8612C2.21599 26.0076 3.43657 24.6452 5.28233 24.1708C5.73954 24.0532 5.95043 24.0386 6.66482 24.0748L7.50788 24.1175L11.9582 19.775L16.4086 15.4325L16.4106 14.4504C16.4122 13.7052 16.4435 13.3686 16.5405 13.0549C17.1033 11.2345 18.7717 9.98434 20.7131 9.92847L20.9946 9.92034L19.8208 11.0743Z" fill="url(#paint0_linear_1710_4150)"/>
<path fill-rule="evenodd" clip-rule="evenodd" d="M18.3423 0.157562C18.1254 0.300237 18.0619 0.429272 17.679 1.50723L17.2555 2.6992L16.5497 2.95803C16.1616 3.10036 15.6775 3.29939 15.4742 3.40032L15.1044 3.58385L13.9752 3.03188C13.352 2.72731 12.7555 2.47999 12.6441 2.47999C12.5316 2.47999 12.32 2.56844 12.1668 2.67957C11.844 2.91359 9.10605 5.60438 8.93695 5.85384C8.87336 5.94747 8.82141 6.10702 8.82141 6.20829C8.82141 6.30957 9.07542 6.89288 9.3859 7.5045L9.95031 8.61663L9.76328 8.97569C9.66044 9.17321 9.45711 9.64477 9.31151 10.0237L9.04677 10.7126L7.82802 11.126C6.83379 11.4632 6.58231 11.5751 6.46261 11.7339C6.32075 11.922 6.31588 12.0067 6.31588 14.2988V16.6692L6.52762 16.8693C6.8124 17.1385 9.48372 18.0161 9.80711 17.9468C10.0956 17.885 10.3741 17.5463 10.3741 17.2574C10.3741 16.8242 10.1561 16.6765 8.89982 16.2584L7.76132 15.8795L7.77967 14.2666L7.79803 12.6536L8.71554 12.3558C10.3053 11.8396 10.2003 11.9272 10.5821 10.7984C10.7072 10.4288 10.9656 9.82699 11.1564 9.46118C11.3473 9.09529 11.5034 8.70756 11.5034 8.59947C11.5034 8.49138 11.2676 7.94341 10.9794 7.38173L10.4554 6.36048L11.6389 5.20667L12.8225 4.05293L13.8912 4.57541C14.479 4.86276 15.0256 5.09789 15.1058 5.09789C15.186 5.09789 15.5755 4.94233 15.9713 4.75219C16.3671 4.56205 17.0561 4.28441 17.5025 4.13533C18.0486 3.9529 18.3488 3.81477 18.4201 3.71323C18.4783 3.63014 18.6874 3.09395 18.8847 2.5216L19.2435 1.48105H20.9253H22.6071L22.9832 2.58332C23.2065 3.23821 23.4145 3.73031 23.4956 3.79569C23.5706 3.85625 23.9441 4.00609 24.3256 4.12865C24.707 4.25114 25.3734 4.51933 25.8065 4.72463C26.2396 4.92993 26.6608 5.09789 26.7425 5.09789C26.8243 5.09789 27.3721 4.86276 27.96 4.57541L29.0287 4.05293L30.2123 5.20667L31.3958 6.36048L30.8718 7.38173C30.5746 7.96098 30.3478 8.49104 30.3478 8.6065C30.3478 8.71845 30.5239 9.16032 30.7392 9.58849C30.9545 10.0167 31.2258 10.6658 31.342 11.0312C31.4583 11.3964 31.6112 11.7463 31.6819 11.8087C31.7525 11.8712 32.3149 12.0868 32.9317 12.2879L34.0531 12.6535L34.0721 14.2804L34.091 15.9073L32.9739 16.2539C32.2283 16.4851 31.8066 16.6527 31.7057 16.7575C31.6226 16.8439 31.4403 17.2397 31.3006 17.6371C31.1608 18.0345 30.8893 18.6721 30.6971 19.0539C30.5019 19.4419 30.3478 19.8443 30.3478 19.9661C30.3478 20.0986 30.5482 20.5762 30.8586 21.1841L31.3695 22.1843L30.1904 23.3352L29.0113 24.4861L27.8975 23.9533C27.2848 23.6603 26.754 23.4211 26.7179 23.4218C26.6817 23.4226 26.289 23.5962 25.8452 23.8076C25.4015 24.0191 24.7226 24.2929 24.3368 24.4162C23.9509 24.5394 23.5654 24.7081 23.4802 24.7911C23.3881 24.8809 23.1798 25.3673 22.9664 25.991L22.6077 27.0401H20.9276H19.2474L18.8833 25.9914C18.6633 25.358 18.4527 24.8738 18.3514 24.7686C17.9629 24.365 17.1496 24.6748 17.1496 25.2263C17.1496 25.3523 17.3584 26.0669 17.6136 26.8143C18.0012 27.9494 18.1125 28.2018 18.2896 28.3472L18.5014 28.5212H20.9271H23.3526L23.5478 28.3574C23.6999 28.2297 23.8304 27.9374 24.1397 27.032L24.5364 25.8704L24.813 25.7744C24.9652 25.7215 25.4684 25.5228 25.9312 25.3328L26.7726 24.9872L27.855 25.5142C29.4585 26.2948 29.1709 26.3898 31.2112 24.4049C32.5185 23.1332 32.911 22.7109 32.973 22.5092C33.05 22.2588 33.0324 22.2091 32.4721 21.0969L31.8915 19.9442L32.1441 19.4123C32.2831 19.1198 32.4869 18.6416 32.5969 18.3496L32.7969 17.8188L33.9852 17.4267C34.8903 17.128 35.2125 16.9904 35.3368 16.8493L35.5 16.6641V14.266C35.5 11.964 35.4943 11.8608 35.3574 11.6909C35.2472 11.5542 34.9374 11.4242 33.9944 11.1191L32.7741 10.7242L32.6129 10.2706C32.5243 10.0211 32.3217 9.54288 32.1628 9.20786L31.874 8.59865L32.3906 7.58889C33.0167 6.36502 33.0545 6.25114 32.929 5.96814C32.8764 5.84943 32.0741 5.01611 31.1461 4.11618C29.646 2.66152 29.4337 2.47999 29.2319 2.47999C29.0894 2.47999 28.5856 2.68508 27.8759 3.03188L26.7467 3.58385L26.377 3.40032C26.1736 3.29939 25.6896 3.09967 25.3014 2.95651C24.9133 2.81336 24.5686 2.65463 24.5356 2.60379C24.5026 2.55294 24.2961 2.0005 24.0768 1.3762C23.6975 0.296035 23.6661 0.235134 23.4311 0.120567C23.2111 0.0132326 22.9323 7.41532e-05 20.8831 5.261e-06C18.6019 -0.000132523 18.58 0.00124529 18.3423 0.157562ZM19.5235 5.10065C14.7432 5.83001 11.25 9.94356 11.4526 14.605C11.4927 15.5256 11.6203 16.2338 11.9041 17.1109L12.081 17.6573L9.53397 20.1442L6.98701 22.631L6.22801 22.6414C3.37446 22.6806 1.01566 24.6774 0.561351 27.4382C0.380812 28.5351 0.617602 30.0957 1.02484 30.4932C1.2094 30.6734 1.58834 30.7132 1.85646 30.5807C1.94123 30.5387 2.63028 29.9031 3.38766 29.1683L4.76471 27.832L5.78654 28.8312L6.80838 29.8305L5.42271 31.1909C4.66061 31.9392 4.00197 32.6191 3.95899 32.7019C3.72291 33.157 3.97861 33.5581 4.63012 33.7545C7.37928 34.5833 10.4175 33.2517 11.6181 30.6918C11.9506 29.9828 12.0782 29.4272 12.1162 28.5212L12.1524 27.6601L14.6614 25.2039L17.1703 22.7479L17.4739 22.8748C17.9281 23.0649 18.7063 23.28 19.3578 23.3956C20.1354 23.5336 21.7382 23.5305 22.5489 23.3896C26.4551 22.7102 29.5469 19.6995 30.2568 15.8835C30.4176 15.0193 30.4119 13.4611 30.2449 12.6071C29.5159 8.88055 26.6769 6.04219 22.8312 5.1951C22.2465 5.06634 20.1423 5.00626 19.5235 5.10065ZM21.7725 6.50722C22.9862 6.58879 24.6473 7.21488 25.6919 7.98454C27.7451 9.49755 28.9362 11.8255 28.9362 14.3254C28.9362 17.2194 27.154 19.9878 24.4359 21.3159C23.4943 21.7761 22.0087 22.1136 20.9256 22.1134C20.0944 22.1132 18.3495 21.7948 18.3495 21.6433C18.3495 21.617 18.7439 21.2114 19.2261 20.7419L20.1028 19.8882L20.6201 19.9017C22.0833 19.9398 23.6325 19.3673 24.7405 18.3789C25.4686 17.7293 26.1336 16.642 26.4109 15.6478C26.6277 14.8703 26.6232 13.5377 26.4013 12.7619C26.2052 12.0764 25.989 11.8493 25.5324 11.8493C25.2526 11.8493 25.2046 11.8882 23.7719 13.2766L22.2991 14.7039L21.2769 13.7079L20.2548 12.712L21.659 11.3334C22.4313 10.5752 23.1012 9.88176 23.1477 9.79255C23.2605 9.57609 23.1844 9.21923 22.9869 9.03811C22.6223 8.70371 21.5931 8.50819 20.4557 8.55717C18.3293 8.6488 16.4729 9.85014 15.5283 11.746C15.1427 12.5199 15.0276 12.9941 14.9826 13.9949L14.9435 14.866L14.1081 15.6794C13.6486 16.1267 13.2539 16.4744 13.2309 16.452C13.2079 16.4296 13.1245 16.1056 13.0454 15.732C12.8427 14.7741 12.8882 13.2819 13.1496 12.3125C13.8968 9.5415 16.1503 7.37085 19.0045 6.67249C19.5696 6.53422 20.6767 6.41304 21.0315 6.45059C21.1285 6.46092 21.462 6.48634 21.7725 6.50722ZM19.8208 11.0743C19.1751 11.709 18.6117 12.296 18.5688 12.3787C18.5258 12.4615 18.4906 12.6313 18.4906 12.7561C18.4906 12.9606 18.6627 13.151 20.239 14.6896L21.9874 16.3962H22.299C22.6083 16.3962 22.6196 16.3875 23.8678 15.1759L25.125 13.9556V14.3381C25.125 14.817 24.9109 15.6481 24.663 16.1313C24.1426 17.1456 23.3147 17.8367 22.0935 18.2765C21.7693 18.3933 21.5158 18.4195 20.6198 18.4289L19.5377 18.4403L15.1303 22.7401C12.7062 25.1051 10.7048 27.1085 10.6828 27.1921C10.6607 27.2757 10.6366 27.7873 10.6293 28.3288C10.6172 29.214 10.597 29.3601 10.429 29.7749C10.0023 30.8283 9.2549 31.6469 8.30047 32.106C7.70267 32.3936 6.96174 32.5826 6.42443 32.5847L6.10958 32.5859L7.28422 31.4319C7.93022 30.7972 8.49407 30.1873 8.53719 30.0765C8.69747 29.6644 8.59916 29.5274 7.03077 27.9789C6.21058 27.1692 5.41566 26.4173 5.26426 26.3083C4.97454 26.0996 4.68376 26.0574 4.42325 26.1863C4.33849 26.2282 3.75417 26.7615 3.12475 27.3714C2.49534 27.9813 1.96346 28.4638 1.94278 28.4435C1.9221 28.4233 1.93699 28.1613 1.97588 27.8612C2.21599 26.0076 3.43657 24.6452 5.28233 24.1708C5.73954 24.0532 5.95043 24.0386 6.66482 24.0748L7.50788 24.1175L11.9582 19.775L16.4086 15.4325L16.4106 14.4504C16.4122 13.7052 16.4435 13.3686 16.5405 13.0549C17.1033 11.2345 18.7717 9.98434 20.7131 9.92847L20.9946 9.92034L19.8208 11.0743Z" fill="white"/>
</g>
<defs>
<linearGradient id="paint0_linear_1710_4150" x1="0.5" y1="0" x2="35.1605" y2="35.8549" gradientUnits="userSpaceOnUse">
<stop stop-color="#0ABD92"/>
<stop offset="1" stop-color="#009DB8"/>
</linearGradient>
</defs>
</svg>
