<svg width="32" height="33" viewBox="0 0 32 33" fill="none" xmlns="http://www.w3.org/2000/svg">
<path fill-rule="evenodd" clip-rule="evenodd" d="M0 1.01613V1.53226H0.516129H1.03226V1.01613V0.5H0.516129H0V1.01613ZM2.06452 1.01613V1.53226H3.6129H5.16129V1.01613V0.5H3.6129H2.06452V1.01613ZM6.19355 1.01613V1.53226H6.70968H7.22581V1.01613V0.5H6.70968H6.19355V1.01613ZM8.25806 1.01613V1.53226H8.77419H9.29032V1.01613V0.5H8.77419H8.25806V1.01613ZM22.7097 1.01613V1.53226H23.2258H23.7419V1.01613V0.5H23.2258H22.7097V1.01613ZM24.7742 1.01613V1.53226H25.2903H25.8064V1.01613V0.5H25.2903H24.7742V1.01613ZM26.8387 1.01613V1.53226H28.3871H29.9355V1.01613V0.5H28.3871H26.8387V1.01613ZM30.9677 1.01613V1.53226H31.4839H32V1.01613V0.5H31.4839H30.9677V1.01613ZM0 4.1129V5.66129H0.516129H1.03226V4.1129V2.56452H0.516129H0V4.1129ZM30.9677 4.1129V5.66129H31.4839H32V4.1129V2.56452H31.4839H30.9677V4.1129ZM3.25516 3.75516L3.09677 3.91348V6.85194V9.79032H3.6129H4.12903V7.20968V4.62903H6.70968H9.29032V4.1129V3.59677H6.35194H3.41348L3.25516 3.75516ZM22.7097 4.1129V4.62903H25.2903H27.871V7.20968V9.79032H28.3871H28.9032V6.85194V3.91348L28.7448 3.75516L28.5865 3.59677H25.6481H22.7097V4.1129ZM0 7.20968V7.72581H0.516129H1.03226V7.20968V6.69355H0.516129H0V7.20968ZM30.9677 7.20968V7.72581H31.4839H32V7.20968V6.69355H31.4839H30.9677V7.20968ZM0 9.27419V9.79032H0.516129H1.03226V9.27419V8.75806H0.516129H0V9.27419ZM30.9677 9.27419V9.79032H31.4839H32V9.27419V8.75806H31.4839H30.9677V9.27419ZM10.968 9.9189L10.5153 10.8226H9.38394C8.60439 10.8226 8.09929 10.8543 7.75942 10.9245C5.73368 11.3429 4.13323 12.9434 3.71477 14.9691C3.57626 15.6398 3.57626 17.3602 3.71477 18.0309C4.13323 20.0566 5.73368 21.6571 7.75942 22.0755C8.09929 22.1457 8.60439 22.1774 9.38394 22.1774H10.5153L10.968 23.0811L11.4207 23.9848L11.8716 23.7577C12.1197 23.6328 12.3226 23.5159 12.3226 23.498C12.3226 23.4801 12.1772 23.1756 11.9994 22.8214L11.6763 22.1774H18.6955C24.8039 22.1774 25.7643 22.1645 26.0958 22.0782C27.1327 21.8081 28.0178 20.923 28.2879 19.8861C28.4346 19.3227 28.4346 13.6773 28.2879 13.1139C28.0178 12.077 27.1327 11.1919 26.0958 10.9218C25.7643 10.8355 24.8039 10.8226 18.6955 10.8226H11.6763L11.9994 10.1786C12.1772 9.82439 12.3226 9.51994 12.3226 9.502C12.3226 9.48407 12.1197 9.36716 11.8716 9.24226L11.4207 9.01516L10.968 9.9189ZM22.5806 11.9143C22.5806 12.0676 22.1278 12.5418 21.8399 12.69L21.5197 12.8548L16.0986 12.8871L10.6774 12.9194L10.3063 13.0933C9.78877 13.3358 9.26974 13.8466 9.0151 14.3639L8.80645 14.7876V16.4986V18.2097L8.98039 18.5808C9.22284 19.0982 9.73368 19.6174 10.2508 19.872L10.6745 20.0806L16.0953 20.1129L21.5161 20.1452L21.8383 20.3065C22.1296 20.4524 22.5806 20.9257 22.5806 21.0857C22.5806 21.1754 8.84071 21.1639 8.23394 21.0736L7.75297 21.0021L7.73135 20.3102C7.71135 19.6717 7.69458 19.5939 7.51445 19.3028C7.39374 19.1078 7.19865 18.9127 7.00368 18.792C6.70284 18.6059 6.64755 18.5953 5.81426 18.5645L4.94039 18.5323L4.8329 18.1774C4.77381 17.9823 4.70452 17.6412 4.67897 17.4194L4.63252 17.0161H5.41303H6.19355V16.5V15.9839H5.41303H4.63252L4.67897 15.5806C4.70452 15.3589 4.77381 15.0177 4.8329 14.8226L4.94039 14.4677L5.81426 14.4355C6.64755 14.4047 6.70284 14.3941 7.00368 14.208C7.19865 14.0873 7.39374 13.8922 7.51445 13.6972C7.69471 13.4059 7.71135 13.3285 7.73135 12.6877L7.7531 11.9937L8.15071 11.9325C8.67665 11.8515 22.5806 11.8341 22.5806 11.9143ZM25.2791 12.2988C25.2734 12.8971 25.4257 13.3246 25.7879 13.7275C26.1324 14.1106 26.5903 14.3629 27.0373 14.4159L27.3548 14.4535V16.509V18.5645H27.1637C26.7907 18.5645 26.2451 18.8271 25.899 19.1732C25.4612 19.611 25.2726 20.0965 25.3017 20.7105L25.3226 21.149L24.5257 21.131L23.7287 21.1129L23.6324 20.8277C23.5794 20.6708 23.4659 20.4313 23.3801 20.2954C23.2794 20.1358 23.253 20.0484 23.3056 20.0483C23.4755 20.0483 24.1906 19.6635 24.4403 19.438C24.5835 19.3087 24.7872 19.0665 24.893 18.8998C25.2396 18.3538 25.2903 18.0459 25.2903 16.4863C25.2903 15.2321 25.2756 15.0329 25.157 14.6807C24.8999 13.9178 24.3463 13.3429 23.6103 13.0745C23.3988 12.9974 23.2258 12.9231 23.2258 12.9094C23.2258 12.8955 23.2961 12.7761 23.382 12.6438C23.4679 12.5115 23.5741 12.2799 23.618 12.129L23.6979 11.8548H24.4906H25.2833L25.2791 12.2988ZM26.7962 12.5668C27.0559 12.8555 27.285 13.301 27.2117 13.3743C27.1968 13.3892 27.0561 13.3364 26.8988 13.2571C26.598 13.1054 26.3226 12.6907 26.3226 12.3895C26.3226 12.1558 26.4795 12.2146 26.7962 12.5668ZM6.70968 12.763C6.70968 12.9677 6.66787 13.0679 6.5211 13.2146C6.35626 13.3795 6.28561 13.4032 5.96064 13.4032H5.58877L5.77826 13.2015C6.01755 12.9468 6.57335 12.5 6.65097 12.5C6.68323 12.5 6.70968 12.6184 6.70968 12.763ZM13.9355 16.5052V19.091L12.4355 19.0695C11.0454 19.0495 10.9166 19.0377 10.6774 18.9089C10.3755 18.7463 10.1274 18.4936 9.95897 18.1774C9.85187 17.9763 9.83871 17.7926 9.83871 16.5C9.83871 14.9173 9.85406 14.8394 10.2493 14.4136C10.6499 13.9821 10.8777 13.9341 12.5645 13.9259L13.9355 13.9194V16.5052ZM23.1555 14.0204C23.3905 14.0902 23.5825 14.2081 23.7759 14.4015C24.1894 14.815 24.2581 15.114 24.2581 16.5C24.2581 17.8997 24.1902 18.1892 23.7648 18.6025C23.2643 19.089 23.3496 19.0806 18.8915 19.0806H14.9677V16.5V13.9194H18.8915C22.2652 13.9194 22.863 13.9335 23.1555 14.0204ZM16.5161 16.5V18.5645H17.0323H17.5484V16.5V14.4355H17.0323H16.5161V16.5ZM6.5211 19.7854C6.66787 19.9321 6.70968 20.0323 6.70968 20.237C6.70968 20.3816 6.68323 20.5 6.65097 20.5C6.57335 20.5 6.01755 20.0532 5.77826 19.7985L5.58877 19.5968H5.96064C6.28561 19.5968 6.35626 19.6205 6.5211 19.7854ZM27.1635 19.8805C27.0776 20.1406 26.5499 20.7581 26.4134 20.7581C26.2787 20.7581 26.3025 20.5026 26.4677 20.175C26.5735 19.9653 26.6906 19.8479 26.8988 19.7429C27.0561 19.6636 27.1968 19.6108 27.2117 19.6257C27.2265 19.6405 27.2048 19.7552 27.1635 19.8805ZM0 23.7258V24.2419H0.516129H1.03226V23.7258V23.2097H0.516129H0V23.7258ZM3.09677 26.1481V29.0865L3.25516 29.2448L3.41348 29.4032H6.35194H9.29032V28.8871V28.371H6.70968H4.12903V25.7903V23.2097H3.6129H3.09677V26.1481ZM27.871 25.7903V28.371H25.2903H22.7097V28.8871V29.4032H25.6481H28.5865L28.7448 29.2448L28.9032 29.0865V26.1481V23.2097H28.3871H27.871V25.7903ZM30.9677 23.7258V24.2419H31.4839H32V23.7258V23.2097H31.4839H30.9677V23.7258ZM0 25.7903V26.3064H0.516129H1.03226V25.7903V25.2742H0.516129H0V25.7903ZM30.9677 25.7903V26.3064H31.4839H32V25.7903V25.2742H31.4839H30.9677V25.7903ZM0 28.8871V30.4355H0.516129H1.03226V28.8871V27.3387H0.516129H0V28.8871ZM30.9677 28.8871V30.4355H31.4839H32V28.8871V27.3387H31.4839H30.9677V28.8871ZM0 31.9839V32.5H0.516129H1.03226V31.9839V31.4677H0.516129H0V31.9839ZM2.06452 31.9839V32.5H3.6129H5.16129V31.9839V31.4677H3.6129H2.06452V31.9839ZM6.19355 31.9839V32.5H6.70968H7.22581V31.9839V31.4677H6.70968H6.19355V31.9839ZM8.25806 31.9839V32.5H8.77419H9.29032V31.9839V31.4677H8.77419H8.25806V31.9839ZM22.7097 31.9839V32.5H23.2258H23.7419V31.9839V31.4677H23.2258H22.7097V31.9839ZM24.7742 31.9839V32.5H25.2903H25.8064V31.9839V31.4677H25.2903H24.7742V31.9839ZM26.8387 31.9839V32.5H28.3871H29.9355V31.9839V31.4677H28.3871H26.8387V31.9839ZM30.9677 31.9839V32.5H31.4839H32V31.9839V31.4677H31.4839H30.9677V31.9839Z" fill="url(#paint0_linear_1710_4070)"/>
<defs>
<linearGradient id="paint0_linear_1710_4070" x1="0" y1="0.5" x2="32.64" y2="33.3" gradientUnits="userSpaceOnUse">
<stop stop-color="#0ABD92"/>
<stop offset="1" stop-color="#009DB8"/>
</linearGradient>
</defs>
</svg>
