<svg width="24" height="26" viewBox="0 0 24 26" fill="none" xmlns="http://www.w3.org/2000/svg">
<path d="M22.7377 11.6932C23.7936 12.3028 23.7936 13.8269 22.7377 14.4366L3.13714 25.753C2.08122 26.3626 0.761317 25.6005 0.761317 24.3813L0.761318 1.74849C0.761318 0.52922 2.08122 -0.232825 3.13714 0.376812L22.7377 11.6932Z" fill="#609C97"/>
<path d="M22.7377 11.6932C23.7936 12.3028 23.7936 13.8269 22.7377 14.4366L3.13714 25.753C2.08122 26.3626 0.761317 25.6005 0.761317 24.3813L0.761318 1.74849C0.761318 0.52922 2.08122 -0.232825 3.13714 0.376812L22.7377 11.6932Z" fill="white"/>
<path d="M22.7377 11.6932C23.7936 12.3028 23.7936 13.8269 22.7377 14.4366L3.13714 25.753C2.08122 26.3626 0.761317 25.6005 0.761317 24.3813L0.761318 1.74849C0.761318 0.52922 2.08122 -0.232825 3.13714 0.376812L22.7377 11.6932Z" fill="url(#paint0_linear_1710_3979)"/>
<defs>
<linearGradient id="paint0_linear_1710_3979" x1="25.1135" y1="-3.16992" x2="-8.16782" y2="29.9491" gradientUnits="userSpaceOnUse">
<stop stop-color="#0ABD92"/>
<stop offset="1" stop-color="#009DB8"/>
</linearGradient>
</defs>
</svg>
