<svg width="34" height="34" fill="none" xmlns="http://www.w3.org/2000/svg"><path d="M29.933 15.507l-.02-.016c.125-.157.253-.322.381-.49 0 0 0 0 0 0 .574-.748 1.146-1.563 1.451-2.068l-7.427 7.307a.503.503 0 00.607.232m5.008-4.965l-.02-.016a31.545 31.545 0 01-2.541 2.807 33.123 33.123 0 01-2.447 2.174m5.008-4.965c.13-.162.26-.325.385-.487h0c.332-.428.964-1.347 1.44-2.079l-1.825 2.566zm-5.008 4.965c-.238.192-.479.38-.722.565l.014-.192.053-.731.655.358zm-6.882 4.6a.502.502 0 00.133.353h0a.536.536 0 00.107.09 34.577 34.577 0 01-1.077-.399l.15-.063.356-.15c.186-.08.392-.173.613-.278a1.182 1.182 0 00-.097.069.541.541 0 00-.122.147.502.502 0 00-.063.23zm0 0l.5.012-.5-.012s0 0 0 0zm6.179-12.46c-.04-.38-.085-.756-.135-1.126a.608.608 0 01-.033.132l.168.994zm0 0l-.144-.11-.632-.483a22.21 22.21 0 00-.345-.26c.063.038.122.072.17.098.03.015.076.038.125.055a.512.512 0 00.36.002.504.504 0 00.298-.295l.168.993zM5.068 5.944a.98.98 0 00-.508.205c.094-.108.189-.214.285-.318l1.071.038.457.017h0c.235.008.468.019.7.032-.774-.028-1.6-.021-2.005.026h0zM20.066.854a1.082 1.082 0 00-.2-.109c.23.039.454.082.67.13l.108-.488-.108.488c.231.051.462.108.694.171a.522.522 0 00-.444.474.57.57 0 00.025.212.814.814 0 00.06.143 6.799 6.799 0 00-.011-.017l-.39.263.39-.263a59.092 59.092 0 01-.136-.202 13.683 13.683 0 00-.273-.397 1.66 1.66 0 00-.385-.405zM32.494 11.7l.074-.14c.12.34.228.686.325 1.034a.511.511 0 00-.626-.223.578.578 0 00-.167.1.937.937 0 00-.112.113c.152-.24.272-.438.336-.561l.17-.323zm.997 5.834a23.29 23.29 0 000 0zm-23.357 3.793l.74.49a.652.652 0 00-.089-.032.508.508 0 00-.635.422 44.23 44.23 0 01-.153-.972l.137.091zm3.05 10.913a2.597 2.597 0 00-.043-.13c.042.085.082.169.123.249l.357-.18-.357.18c.082.163.166.32.237.441.035.06.07.118.102.165.016.023.035.05.056.076l.001.002c.012.014.063.077.14.126h0a.685.685 0 00.035.021c-.351-.07-.7-.15-1.045-.241a.504.504 0 00.422-.42.51.51 0 000-.163.896.896 0 00-.028-.126zm3.813 1.26c-.365 0-.73-.012-1.092-.037a31.116 31.116 0 002.027.01 16.02 16.02 0 01-.935.027zm12.564-5.815c-.24.285-.489.56-.747.828a.74.74 0 00.066-.095.537.537 0 00.066-.25.503.503 0 00-.387-.492 1.008 1.008 0 00-.078-.018c.238.017.433.027.558.027h.521zM1.603 22.903l-.051-.134.51-.984.08-.157a14.69 14.69 0 00-.314.719s0 0 0 0l-.179.443-.046.113zM21.516 2.96c.548.99 1.028 2.121 1.432 3.374a22.703 22.703 0 00-1.432-3.374zm-2.669 22.519s0 0 0 0h0zM12.357 6.68a27.028 27.028 0 012.87.864 35.174 35.174 0 00-2.87-.864l-.12.486.12-.486zm3.48 1.105a3.153 3.153 0 00-.25-.108c.49.186.98.387 1.468.604a.51.51 0 00-.072-.002h-.001c-.066.003-.119.02-.125.021h0a.59.59 0 00-.08.03l-.085.038-.256.123c-.178.086-.408.2-.659.325a8.455 8.455 0 00.172-.103c.003-.002.04-.026.077-.06h0a.506.506 0 00.105-.595.54.54 0 00-.146-.18h0a.843.843 0 00-.149-.093zM9.502 12.76l.15-.117-.017.165-.045.428c-.028.273-.046.642-.053 1.073l-.013-.556-.022-.993zm-6.305 6.934c1.08-1.78 2.463-3.473 4.114-5.045-1.61 1.555-3.036 3.307-4.114 5.045zm12.199-11.01a.057.057 0 010 0zm7.697 2.693v-.001.001z" fill="#fff" stroke="url(#paint0_linear_3089_3674)"/><defs><linearGradient id="paint0_linear_3089_3674" x1="0" y1="0" x2="34.68" y2="34.85" gradientUnits="userSpaceOnUse"><stop stop-color="#0ABD92"/><stop offset="1" stop-color="#009DB8"/></linearGradient></defs></svg>